
Genre:Comedy
Language:English
IMDb:http://www.imdb.com/title/tt0427152/
Source:Bluray.x264-CBGB
Subtitles:Romana


Format : Matroska
File size : 2.05 GiB
Duration : 1h 54mn
Overall bit rate : 2 568 Kbps


Video
ID : 1
Format : AVC
Format/Info : Advanced Video Codec
Format profile : High@L3.1
Format settings, CABAC : Yes
Format settings, ReFrames : 4 frames
Codec ID : V_MPEG4/ISO/AVC
Duration : 1h 54mn
Bit rate : 2 200 Kbps
Width : 1 280 pixels
Height : 720 pixels
Display aspect ratio : 16:9
Frame rate mode : Variable
Frame rate : 23.976 fps
Color space : YUV
Chroma subsampling : 4:2:0
Bit depth : 8 bits
Scan type : Progressive
Bits/(Pixel*Frame) : 0.100
Stream size : 1.70 GiB (83%)
Writing library : x264
\

Audio
ID : 2
Format : AC-3
Format/Info : Audio Coding 3
Mode extension : CM (complete main)
Codec ID : A_AC3
Duration : 1h 54mn
Bit rate mode : Constant
Bit rate : 384 Kbps
Channel(s) : 6 channels
Channel positions : Front: L C R, Side: L R, LFE
Sampling rate : 48.0 KHz
Bit depth : 16 bits
Video delay : -1mn 5s
Stream size : 313 MiB (15%)
Language : English



Plot:
Tim (Rudd) is a rising executive who "succeeds" in finding the perfect guest, IRS employee Barry (Carell)